<svg width="16" height="16" viewBox="0 0 16 16" fill="none" xmlns="http://www.w3.org/2000/svg">
<g id="Group">
<path id="Vector" d="M2.53045 3.96268C3.70339 2.28896 5.646 1.25082 7.72432 1.25082C11.2159 1.25082 14.0566 4.09143 14.0566 7.58306H15.3074C15.3074 3.40173 11.9056 0 7.72432 0C6.26344 0 4.84489 0.416482 3.622 1.20446C2.84716 1.7037 2.17493 2.3362 1.6319 3.06839L0 1.44432V6.17097H4.74937L2.53045 3.96268Z" fill="white"/>
<path id="Vector_2" d="M15.8264 9.82904H11.0771L13.296 12.0374C12.123 13.711 10.1804 14.7492 8.1021 14.7492C4.61048 14.7492 1.76986 11.9086 1.76986 8.41699H0.519043C0.519043 12.5983 3.92077 16.0001 8.1021 16.0001C9.56298 16.0001 10.9816 15.5836 12.2044 14.7956C12.9793 14.2963 13.6515 13.6638 14.1945 12.9316L15.8264 14.5557V9.82904H15.8264Z" fill="white"/>
</g>
</svg>
